<?xml version="1.0" encoding="UTF-8"?>
<svg id="_1" data-name=" 1" xmlns="http://www.w3.org/2000/svg" viewBox="0 0 3000 2000">
  <defs>
    <style>
      .cls-1 {
        fill: #f4ae11;
      }

      .cls-2 {
        fill: #efa087;
      }

      .cls-3 {
        fill: #cda295;
      }

      .cls-4 {
        fill: #573961;
      }

      .cls-5 {
        fill: #ffc4ad;
      }

      .cls-6 {
        fill: #feefec;
      }

      .cls-7 {
        fill: #b78377;
      }

      .cls-8 {
        fill: #b96b69;
      }

      .cls-9 {
        fill: #ffcd50;
      }
    </style>
  </defs>
  <path class="cls-7" d="m1313.16,784.29s48,14.72,80.12,60,41.2,130.28,69.39,165.71,204.8-72.75,204.8-72.75l140.08-105.08-52.32-37.22s-43.19,20.45-137.16-6.26-201.89-46.37-304.91-4.4Z"/>
  <path class="cls-4" d="m752.05,1176.34c25.44,3.6,45.18,14.43,67.7,8.2,7.13-8.73,23.57-11.14,35.24-.82s11.72,25.08,4.1,33.07c-1.08,1.21-2.23,2.36-3.45,3.43h0s-23.17,40.83-32.68,32.42l-69.24-61.21s-18.72-17.49-1.67-15.09Z"/>
  <path class="cls-4" d="m1189.18,936c16.44,22.22,12.81,53.38-8.3,71.23-.08.25-.16.5-.25.75-21.51,16.67-29.6,41.17-106.19,97.24s-218,113.74-218,113.74c-12.53,9.27-27.22,8.71-36.48-3.82s-7.8-26.66,4.72-35.93l286.12-249.91c1.57-1.52,3.24-2.94,5-4.24,23.28-17.24,56.12-12.35,73.37,10.92,0,0,0,.01.01.02Z"/>
  <path class="cls-9" d="m1527.91,971.5c40.55,10.33,65.04,51.59,54.71,92.14-10.06,39.47-49.53,63.93-89.35,55.36h0c-169-31.76-353.32-104.69-353.32-104.69-28.02-7.35-44.77-36.03-37.42-64.05,6.99-26.62,33.37-43.32,60.42-38.23h0l356.28,57.77h0c2.92.4,5.82.97,8.68,1.7Z"/>
  <path class="cls-9" d="m1578,1099.05c41.15-7.57,80.65,19.64,88.22,60.79,7.32,39.76-17.87,78.25-57.22,87.48h0c-166.53,42.73-364.42,54.67-364.42,54.67-28.47,5.3-55.85-13.48-61.15-41.95-5.06-27.2,11.87-53.65,38.68-60.44h0l347.24-98.44h0c2.84-.87,5.73-1.58,8.65-2.11Z"/>
  <path class="cls-4" d="m1543.61,1584.07c-3.42-25.46,1.67-47.4-10.43-67.39-10.32-4.5-17.1-19.67-10.32-33.7s21-18.07,30.73-12.9c1.46.71,2.87,1.52,4.23,2.4h0s45.58,11.25,40.06,22.69-40.2,83.22-40.2,83.22c0,0-11.78,22.73-14.07,5.68Z"/>
  <path class="cls-4" d="m1196.08,1226.72c17.03-21.77,48.04-26.58,70.87-11h.78c21.8,16.28,47.58,17.55,122,76.42s167.78,179.86,167.78,179.86c12.27,9.6,15.65,23.91,6,36.18s-23.62,14.62-35.89,5l-317.18-209.14c-24.85-14.78-33.02-46.92-18.23-71.77,1.15-1.94,2.43-3.8,3.82-5.57l.05.02Z"/>
  <path class="cls-9" d="m1384.2,1282.32s119.19,106.48,171.52,177.34c-26.16,36.52-41.43,52.88-41.43,52.88,0,0-286.71-185.88-321-216.41s-4.75-76.28,6.23-84.14,51.55-21.35,107.14-5.4,77.54,75.73,77.54,75.73Z"/>
  <path class="cls-9" d="m827.12,1165s260.1-224.76,286.53-242.2,58.24-9.31,58.24-9.31v106.01s-28.62,44.79-115.11,108-182.78,93.41-182.78,93.41l-46.88-55.91Z"/>
  <path class="cls-1" d="m867.45,1200.35c-.41,0-.79-.22-1-.57-.34-.57-.16-1.3.4-1.65,1.4-.85,140.51-85.65,197.22-129,16-12.21,29.31-24.89,41.08-36.08,31.26-29.69,53.84-51.15,94.71-37.82,16.54,5.39,39.93,13.72,67,23.37,64.54,23,152.94,54.49,232.13,76,.64.17,1.01.83.84,1.47-.17.64-.83,1.01-1.47.83-79.27-21.57-167.72-53.09-232.3-76.1-27.07-9.64-50.44-18-67-23.35-39.52-12.88-61.67,8.16-92.32,37.29-11.82,11.23-25.22,24-41.28,36.24-56.81,43.46-196,128.32-197.43,129.18-.17.11-.37.18-.58.19Z"/>
  <path class="cls-1" d="m1528.79,1475.86c-.33,0-.65-.14-.87-.38-104.8-112.11-196.45-162.52-240.5-186.75-20.47-11.26-29.81-16.4-29.42-21,.23-2.74.76-9.14,145.36-27.22,71-8.88,142.8-16.25,143.52-16.32.65-.07,1.24.41,1.31,1.06.07.65-.41,1.24-1.07,1.31-.7.08-71.45,7.34-141.91,16.13-128,16-143.94,23-144.84,25.29-.24,3,11.69,9.61,28.21,18.69,44.15,24.29,136,74.83,241.09,187.22.45.48.42,1.24-.06,1.69-.23.19-.52.29-.82.28Z"/>
  <path class="cls-1" d="m1386.38,1288.25c-.15,0-.3-.03-.44-.09-33.59-13.22-71.21-15.52-71.58-15.54-.66-.04-1.16-.61-1.13-1.27.04-.66.6-1.16,1.26-1.12,0,0,0,0,.01,0,.38,0,38.37,2.34,72.32,15.71.61.25.91.95.65,1.57-.18.45-.61.74-1.09.74h0Z"/>
  <path class="cls-9" d="m1558.66,956.27l-49.66,22.16c-37.77,16.85-56.15,57.92-41.07,91.74l62.63,140.34c15.13,33.91,58.15,47.62,96,30.59l49.57-22.32c37.61-16.94,55.85-57.9,40.8-91.62l-62.57-140.16c-15.09-33.83-57.94-47.58-95.7-30.73Z"/>
  <path class="cls-5" d="m2052.57,674.27s-49.41,39.76-93,14.18-24-74,9.09-111.84,68.38-66.8,103-51.46,56.85,52.73,35.69,90.68-54.78,58.44-54.78,58.44Z"/>
  <path class="cls-6" d="m1816.38,695.15c28-6.46,65.76-2.23,96.28.39,19.1,1.63,38.87,5,56.75,16.11h0c16.85,10.47,31,15.1,45,34.8,28.88,40.7,72.22,76,57.42,139.13-21.61,92.16-141.26,184.61-223.66,229.77-50.15,29.67-105.33,58.4-150.22,94.32-34.52-19.74-80.59-87.84-100.66-117.08s-69-93.52-68.5-129.61c29.77-21.28,94.24-50.29,117.55-63.19,20.17-11.15,4.08-2.57,4.08-2.57,18-8.84,42-33.6,50-42.82,32.36-37.23,71.94-149.1,115.96-159.25Z"/>
  <path class="cls-5" d="m1466.13,389s40,76,135.15,161.4h0c19.26,15.36,22.42,43.42,7.06,62.68-15.36,19.26-43.42,22.42-62.68,7.06h0c-1.95-1.57-3.78-3.29-5.45-5.15h0s-75.83-78.51-122.58-211c-5.09-13.1,1.4-27.84,14.5-32.93,13.1-5.09,27.84,1.4,32.93,14.5.44,1.14.8,2.3,1.07,3.49v-.05Z"/>
  <path class="cls-5" d="m1454,344.17c9.58,18.24,11.07,41.55,11.07,41.55,0,0,3.51,18.35-14.78,27.53s-33.29-11.05-33.29-11.05c0,0-46.94-77.46-45.65-80.46s5.31.22,5.31.22c0,0-7.07-12.23-4.75-15.13s7.68-.46,7.68-.46c0,0-3.86-7.09-1.41-9.24s10.33,5.39,10.33,5.39c0,0-3.58-6.52-.15-10.36s34.56,30.49,39.84,37.62c1.58,2.13,4.32,6.72,7.4,12.1h0c8.62,3.65-5.85-23.66-2.51-26.48s11.33,10.52,20.91,28.77Z"/>
  <path class="cls-5" d="m2018.48,1314.94s61.76-59.67,117.09-175h0c9.55-22.71,35.69-33.38,58.4-23.83,22.43,9.43,33.16,35.1,24.12,57.69-.95,2.32-2.09,4.55-3.42,6.67h0s-54.13,94.79-168.28,176.79c-11.13,8.57-27.1,6.5-35.68-4.63-8.57-11.13-6.5-27.1,4.63-35.68.99-.76,2.04-1.45,3.13-2.06v.05Z"/>
  <path class="cls-5" d="m1978.84,1339.14c14.83-14.31,36.78-22.27,36.78-22.27,0,0,16.64-8.51,30.57,6.48s-1.27,35.08-1.27,35.08c0,0-61.22,66.76-64.45,66.36s-1.28-5.16-1.28-5.16c0,0-9.76,10.21-13.2,8.8s-2.59-7.24-2.59-7.24c0,0-5.73,5.68-8.48,3.94s2.29-11.43,2.29-11.43c0,0-5.25,5.26-9.91,3s19.59-41.71,25-48.78c1.61-2.11,5.24-6,9.55-10.49h0c1.08-9.3-21.08,12.25-24.73,9.83s6.88-13.81,21.72-28.12Z"/>
  <path class="cls-5" d="m1862.1,694.05c24.45,19.48,28.47,55.09,8.99,79.54-11.87,14.9-30.44,22.82-49.41,21.09h0s-66.59-3.14-160.91-71-120.56-108.68-120.56-108.68h0c-16.43-18.35-14.87-46.54,3.47-62.96,17.78-15.92,44.94-15.02,61.63,2.04h0s28,27,98.42,70.75,135.58,58.28,135.58,58.28h0c8.33,1.88,16.12,5.62,22.79,10.94Z"/>
  <path class="cls-6" d="m1871.06,773.61c-11.86,14.89-30.42,22.81-49.38,21.07h0s-46.15-2.18-116-42.08l50.47-99.55c47.31,22,83.2,30,83.2,30h0c30.5,6.93,49.6,37.28,42.67,67.77-1.89,8.31-5.63,16.08-10.94,22.75l-.02.04Z"/>
  <path class="cls-5" d="m2004.89,900.27c-8.59-30.06,8.81-61.4,38.87-69.99,18.3-5.23,38-.92,52.44,11.48h0s52.42,41.24,89.8,151.24,35.15,158.45,35.15,158.45h0c2.51,24.5-15.32,46.4-39.82,48.91-21.37,2.19-41.26-11.16-47.33-31.76-.5-1.75-.89-3.53-1.17-5.33h0s-7.12-38.24-39.1-114.73-76.61-126.14-76.61-126.14h0c-5.7-6.36-9.88-13.92-12.23-22.13Z"/>
  <path class="cls-6" d="m2043.75,830.27c18.3-5.24,38.01-.92,52.45,11.49h0s36.32,28.55,70.08,101.59l-98.87,51.79c-25.75-45.38-50.34-72.74-50.34-72.74h0c-20.81-23.34-18.76-59.14,4.58-79.96,6.36-5.67,13.91-9.83,22.1-12.17h0Z"/>
  <path class="cls-5" d="m2023.13,629.62c17.88,7.26,26.52,27.63,19.29,45.53l-29.3,72.38h-.1c-9,17.11-30.17,23.67-47.27,14.67-15.61-8.21-22.66-26.76-16.47-43.27l28.32-70c7.25-17.89,27.63-26.53,45.53-19.31Z"/>
  <path class="cls-8" d="m2033.57,697s-8.93-32.1,0-55.54,11.64-24.53,32.36-40.34,23.44-54.44,0-60.47-36.33-14.77-36.33-14.77c0,0-32.22,14.78-55.51,44.63-17.73-39.16,1.34-61.51,28.6-66.41s12-45.79,50.7-59.42,58.49,21.26,58.68,36,30.72,22.89,40.53,52.32,5.45,54-10.36,68.14-22.35,37.61-36.52,56.69-40.72,41.85-72.15,39.17Z"/>
  <path class="cls-2" d="m1961.22,689.37s31.14,16,70.65,0c1,4.65,1.7,7.65,1.7,7.65,0,0-33.43,32.56-80.67,12.9,5.25-12.92,8.32-20.55,8.32-20.55Z"/>
  <path class="cls-3" d="m2025,760.57s-90.63,59.34-199,181.75c-88.07,99.52-290.18,91.34-401,127.73,47.79,137.78,84.71,216.67,159.46,232.82,187.58-44.35,467.06-294.55,539.91-430.27-43.18-70.32-99.37-112.03-99.37-112.03Z"/>
  <path class="cls-3" d="m2064.29,856.24l31.78-24.11s46.28,55.18,70.21,93.89,64.81,198.41,61,246.38-139.54,167.34-139.54,167.34l-57.23-54s80.9-125.72,88.3-136.82-51.81-133.51-81.81-182.02,27.29-110.66,27.29-110.66Z"/>
  <path class="cls-3" d="m1927.36,697.23s-70.36,26.77-164.14,108.68c-62.41,54.54-114.81-5.28-210.86-24.91s-165.24-20.87-255.19,25.64c-1.28-21.08,0-27.62,0-27.62,0,0,75-40.7,165.5-32s206.07,46.52,251.13,41.43,125.53-105.38,125.53-105.38c0,0,53.02,1.41,88.03,14.16Z"/>
  <path class="cls-3" d="m1418.32,441.6l69.81-33.42s64.55,89.7,140.09,153.17,177.65,109.73,246.89,124.65c-38.67,40-130.79,98.34-130.79,98.34,0,0-91.57-40.61-179.88-131.23s-146.12-211.51-146.12-211.51Z"/>
  <polygon class="cls-7" points="2030.5 1285.78 2013.96 1310.49 2055.75 1357 2087.73 1339.74 2030.5 1285.78"/>
  <polygon class="cls-7" points="1409.82 408.18 1469.6 385.47 1488.13 408.18 1418.32 441.6 1409.82 408.18"/>
  <path class="cls-7" d="m1832.89,934.69s53.52-73.9,98.22-109.52,87.77-91.88,96-112.28c15.89,22.63,20.62,46.87,3.9,71.4s-146.62,113.46-198.12,150.4Z"/>
  <path class="cls-7" d="m1751.73,814.77s76.75-55.44,113.6-80.63,65.64-32.67,89.79-29.69l6.1-15.08s-48.73-16.23-90.07,7.66-74.23,70.97-119.42,117.74Z"/>
  <path class="cls-7" d="m2043.33,978.62c-.46,0-.88-.26-1.08-.68l-24.25-50.13c-.2-.63.15-1.31.78-1.51.52-.16,1.09.04,1.38.51l24.27,50.13c.29.59.04,1.31-.55,1.6-.17.07-.36.1-.55.08Z"/>
  <path class="cls-7" d="m1738.51,779.46c-.28,0-.56-.1-.77-.28-.49-.41-.56-1.13-.16-1.63,1.46-1.84,57.93-45.73,69.24-54.51.49-.44,1.25-.4,1.69.09s.4,1.25-.09,1.69c-.04.04-.08.07-.13.1-26.81,20.82-67.27,52.42-68.87,54.14-.24.25-.57.39-.91.39Z"/>
  <path class="cls-7" d="m1621.13,1288.25c-.13,0-.26-.03-.38-.07-.62-.21-62.47-21.79-101.64-87.23-39-65.24-54.53-135.71-54.68-136.41-.09-.66.37-1.26,1.03-1.35.59-.08,1.14.28,1.31.85.15.7,15.55,70.79,54.39,135.68,38.71,64.66,99.75,86,100.36,86.2.62.21.96.89.75,1.51-.17.49-.62.82-1.14.82Z"/>
  <path class="cls-7" d="m1333.32,789.85c-.49,0-.93-.31-1.11-.76-5.84-14.89-2.17-23.08-2-23.43.27-.59.97-.86,1.56-.59,0,0,.01,0,.02,0,.6.28.86.99.59,1.59,0,.1-3.36,7.73,2.07,21.55.24.62-.07,1.31-.68,1.55-.14.05-.3.08-.45.08Z"/>
</svg>