<svg id="Calque_1" data-name="Calque 1" xmlns="http://www.w3.org/2000/svg" xmlns:xlink="http://www.w3.org/1999/xlink" viewBox="0 0 7783.5 4344.5"><defs><style>.cls-1{fill:none;}.cls-2{fill:#8c8c8c;}.cls-3{fill:#d3ab4d;}.cls-4{fill:url(#Dégradé_sans_nom);}.cls-5{fill:url(#Dégradé_sans_nom_2);}.cls-6{fill:url(#Dégradé_sans_nom_3);}.cls-7{fill:url(#Dégradé_sans_nom_4);}.cls-8{fill:url(#Dégradé_sans_nom_5);}.cls-9{fill:#170401;}.cls-10{fill:url(#Dégradé_sans_nom_6);}.cls-11{fill:url(#Dégradé_sans_nom_7);}.cls-12{clip-path:url(#clip-path);}.cls-13{fill:#ebdceb;}.cls-14{fill:#c294a8;}.cls-15{fill:#d2ab76;}.cls-16{fill:#b87d24;}.cls-17{fill:#3c2308;}.cls-18{fill:#e8bb82;}.cls-19{fill:#d9af7a;}.cls-20{fill:url(#Dégradé_sans_nom_8);}.cls-21{fill:#bb8128;}.cls-22{fill:#f7c88b;}.cls-23{fill:#b77c25;}.cls-24{fill:#693c0e;}.cls-25{fill:#7a5118;}.cls-26{fill:#d68822;}.cls-27{fill:#eda140;}.cls-28{fill:#c28434;}.cls-29{fill:#4a2506;}.cls-30{fill:#ba7214;}.cls-31{fill:#4f2b06;}.cls-32{fill:#e69a36;}.cls-33{fill:#a35f08;}.cls-34{clip-path:url(#clip-path-2);}.cls-35{fill:#141314;}.cls-36{fill:#262624;}.cls-37{fill:#f0d9d1;}.cls-38{fill:#945b10;}.cls-39{fill:#42393c;}.cls-40{fill:url(#Dégradé_sans_nom_9);}.cls-41{fill:#999;}.cls-42{fill:url(#Dégradé_sans_nom_10);}.cls-43{fill:#d6d6d6;}.cls-44{fill:#b4babf;}.cls-45{fill:#464d52;}.cls-46{fill:#677178;}.cls-47{fill:#dedede;}.cls-48{fill:#ccc;}.cls-49{fill:url(#Dégradé_sans_nom_11);}.cls-50{fill:#e6edf5;}.cls-51{fill:#f0dada;}.cls-52{fill:url(#Dégradé_sans_nom_12);}.cls-53{fill:#f0f0f0;}.cls-54{fill:url(#Dégradé_sans_nom_13);}.cls-55{fill:#1c1c1c;}.cls-56{fill:#6b3d0e;}.cls-57{fill:#402408;}.cls-58{stroke:#999;fill:url(#Dégradé_sans_nom_118);}.cls-58,.cls-61{stroke-miterlimit:10;}.cls-59{fill:#fff;}.cls-60{fill:#cac9d9;}.cls-61{stroke:#000;stroke-width:3px;}.cls-62{fill:#d3d3d3;}</style><linearGradient id="Dégradé_sans_nom" x1="6097.17" y1="-241.98" x2="6116.28" y2="-426.74" gradientTransform="translate(0 3264)" gradientUnits="userSpaceOnUse"><stop offset="0.12" stop-color="#ffae44"/><stop offset="0.17" stop-color="#f9a740"/><stop offset="0.25" stop-color="#e99535"/><stop offset="0.34" stop-color="#cf7822"/><stop offset="0.39" stop-color="#ba6014"/><stop offset="1" stop-color="#87470e"/></linearGradient><linearGradient id="Dégradé_sans_nom_2" x1="6104.63" y1="-241.2" x2="6123.75" y2="-425.97" gradientTransform="translate(0 3264)" gradientUnits="userSpaceOnUse"><stop offset="0.12" stop-color="#c28434"/><stop offset="0.18" stop-color="#bb7e31"/><stop offset="0.25" stop-color="#a96d27"/><stop offset="0.34" stop-color="#8c5017"/><stop offset="0.39" stop-color="#783e0d"/><stop offset="0.81" stop-color="#4f2908"/><stop offset="1" stop-color="#241404"/></linearGradient><linearGradient id="Dégradé_sans_nom_3" x1="5394.02" y1="-328.6" x2="6754.53" y2="-328.6" gradientTransform="translate(0 3264)" gradientUnits="userSpaceOnUse"><stop offset="0" stop-color="#170401"/><stop offset="0.12" stop-color="#1e0902"/><stop offset="0.28" stop-color="#301705"/><stop offset="0.3" stop-color="#331a05"/><stop offset="0.32" stop-color="#452407"/><stop offset="1" stop-color="#452407"/></linearGradient><linearGradient id="Dégradé_sans_nom_4" x1="6107.75" y1="-235.52" x2="6123.08" y2="-421.17" gradientTransform="translate(0 3264)" gradientUnits="userSpaceOnUse"><stop offset="0" stop-color="#301d06"/><stop offset="0.06" stop-color="#351f07"/><stop offset="0.19" stop-color="#3c2308"/><stop offset="0.42" stop-color="#3c2308"/><stop offset="1" stop-color="#261605"/></linearGradient><linearGradient id="Dégradé_sans_nom_5" x1="6105.51" y1="-213.18" x2="6124.29" y2="-440.66" gradientTransform="translate(0 3264)" gradientUnits="userSpaceOnUse"><stop offset="0" stop-color="#381b01"/><stop offset="0.19" stop-color="#311801"/><stop offset="0.45" stop-color="#1f1003"/><stop offset="0.49" stop-color="#1c0f03"/><stop offset="1" stop-color="#170700"/></linearGradient><linearGradient id="Dégradé_sans_nom_6" x1="6593.37" y1="-410.31" x2="6926.7" y2="-296.68" gradientTransform="translate(0 3264)" gradientUnits="userSpaceOnUse"><stop offset="0" stop-color="#2c1604"/><stop offset="0.41" stop-color="#582f09"/><stop offset="1" stop-color="#5e310a"/></linearGradient><linearGradient id="Dégradé_sans_nom_7" x1="6530.5" y1="28.05" x2="6910.2" y2="28.05" xlink:href="#Dégradé_sans_nom_6"/><clipPath id="clip-path"><path class="cls-1" d="M6910.2,2913.5l-408.59,149.32,95.88-339.47,163-52.95,114.66,178.2,13.19,339.66Zm-379.7,151.9,6,605.2,373.7-236.2v-521Z"/></clipPath><linearGradient id="Dégradé_sans_nom_8" x1="6014.45" y1="-508.34" x2="6016.57" y2="-616.65" gradientTransform="translate(-11.15 3051.07) rotate(2)" gradientUnits="userSpaceOnUse"><stop offset="0" stop-color="#2c1604"/><stop offset="0.66" stop-color="#79400c"/><stop offset="1" stop-color="#79400c"/></linearGradient><clipPath id="clip-path-2"><path class="cls-1" d="M5236.9,3480.3l-1-39.7,15.4-7.4-16.1-24-4.5-186.1,1364.2,190.2-1.4,299Zm1356.6-90,1.4-299L5222.3,2939.4l8.4,265.8ZM6696,2689.76l116.56-74.49L5492,2554.76l-152.84,58.61Zm-108.8,331.31,74.88-274L5298.39,2669l-25.89,71.14,5,40.4-19.39-.68-45.69,125.29Z"/></clipPath><linearGradient id="Dégradé_sans_nom_9" x1="6116.05" y1="289.65" x2="6475.15" y2="-69.45" gradientTransform="translate(0 3264)" gradientUnits="userSpaceOnUse"><stop offset="0" stop-color="#adadad"/><stop offset="0.49" stop-color="#adadad"/><stop offset="0.65" stop-color="#d6d6d6"/><stop offset="0.79" stop-color="#adadad"/><stop offset="1" stop-color="#e8e8e8"/></linearGradient><linearGradient id="Dégradé_sans_nom_10" x1="5257.32" y1="145.62" x2="5575.37" y2="-172.42" xlink:href="#Dégradé_sans_nom_9"/><linearGradient id="Dégradé_sans_nom_11" x1="5358.7" y1="-360.93" x2="5594.9" y2="-597.12" gradientTransform="translate(-11.15 3051.07) rotate(2)" gradientUnits="userSpaceOnUse"><stop offset="0" stop-color="#e9eff3"/><stop offset="0.49" stop-color="#b5babd"/><stop offset="0.65" stop-color="#dde3e6"/><stop offset="0.79" stop-color="#b5babd"/><stop offset="1" stop-color="#eef4f8"/></linearGradient><linearGradient id="Dégradé_sans_nom_12" x1="6054.93" y1="-279.13" x2="6411.71" y2="-476.64" gradientTransform="translate(-343.86 2999.67) rotate(2)" gradientUnits="userSpaceOnUse"><stop offset="0" stop-color="#4b4239"/><stop offset="0.15" stop-color="#251d20"/><stop offset="0.42" stop-color="#251d20"/><stop offset="0.65" stop-color="#3f3830"/><stop offset="1" stop-color="#3f3830"/></linearGradient><linearGradient id="Dégradé_sans_nom_13" x1="6143.54" y1="-547.56" x2="6280.52" y2="-281.56" gradientTransform="translate(-343.86 2999.67) rotate(2)" gradientUnits="userSpaceOnUse"><stop offset="0" stop-color="#e6e6e6"/><stop offset="1" stop-color="#bfbfbf"/></linearGradient><linearGradient id="Dégradé_sans_nom_118" x1="12928.51" y1="-2713.65" x2="12928.51" y2="1570.23" gradientTransform="matrix(-1, -0.1, -0.1, 1, 14765.88, 4002.31)" gradientUnits="userSpaceOnUse"><stop offset="0.69" stop-color="#f7f5ff"/><stop offset="0.74" stop-color="#f3f1fb"/><stop offset="0.78" stop-color="#e7e5ee"/><stop offset="0.83" stop-color="#d2d1d9"/><stop offset="0.88" stop-color="#b6b5bb"/><stop offset="0.93" stop-color="#919094"/><stop offset="0.98" stop-color="#656466"/><stop offset="1" stop-color="#4c4c4c"/></linearGradient></defs><rect x="0.5" y="0.5" width="7783" height="4344"/><g id="Calque_3" data-name="Calque 3"><path class="cls-2" d="M6593.5,3717.3l230.9-4.9,68.5-33s-120.4-15.8-98.2-35.2,402.9,25.9,426,26.4,238-38.4,243.6-46.8-77.8-36.1-65.8-42.6,120.4,11.1,131.5,8.3,145.4-66.7,129.7-75.9-139.9-18.5-125-39.8,173.2,27.8,198.2-40.8-168.6-52.8-209.3-65.8-91.7-40.8-146.3-45.4-243.6-4.6-305.6-18.5-191.7-28.7-191.7-28.7l-1644.2,199-13.4,10.7,157.7,29.2-16.3,14.6,111.8,19.9,25.9-15.8L6237,3659.1l-11.5,14.9,130.6,26.1,24.3-17.1Z"/><polygon class="cls-3" points="5818.73 2516.11 5886.97 2590.73 5726.74 2562.94 5818.73 2516.11"/><polygon class="cls-3" points="6669.02 2548.53 6713.59 2619.13 6579.89 2602.36 6669.02 2548.53"/><polygon class="cls-4" points="5304.3 2935.7 5798.8 2813.4 6910.2 2913.5 6530.5 3065.4 5304.3 2935.7"/><polygon class="cls-5" points="5319 2939.4 5798.8 2813.4 6910.2 2913.5 6530.5 3065.4 5319 2939.4"/><polygon class="cls-6" points="5404.9 2930.1 5813.2 2837.3 6797.7 2926.4 6493.3 3033.5 5404.9 2930.1"/><polygon class="cls-7" points="6910.2 2913.5 6501.61 3062.82 5321.18 2951.25 5798.8 2813.4 6910.2 2913.5"/><polygon class="cls-8" points="6812.1 2884.1 6446.64 3081.22 5418.19 2984.05 5843.9 2796.9 6812.1 2884.1"/><polygon class="cls-9" points="5823.71 3022.39 5418.19 2984.05 5843.9 2796.9 5824.42 3039.23 5823.71 3022.39"/><polygon class="cls-10" points="6910.2 2913.5 6501.61 3062.82 6597.59 2723.26 6760.63 2670.3 6875.4 2848.6 6888.58 3188.17 6910.2 2913.5"/><polygon class="cls-11" points="6910.2 2913.5 6910.2 3434.4 6536.5 3670.6 6530.5 3065.4 6910.2 2913.5"/><g class="cls-12"><path class="cls-13" d="M7035.87,2895.22s-38.53,3.06-66.2,61.93-37.28,131-75.92,145.85-59.59,1.62-75.42,53.9,72.77-497.8,42.57-453.3-19.5,57.6-33.1,79.8-33,27.8-33,27.8l.2,74.9-32.4-27.6s9.4-30.9,19.1-52.8,10.4-47.5,16.6-67.5,7.9-33.7,20-55.4-44.28,528.09-39.07,513.57-6.32-10.93,3-45.63-.45-44.64,30.48-56.47,16.78,12.59,48-19.64,22.92-14.51,30.21-48.58-11.35-30.51,15.18-53.9,31-23.84,41.83-40.27-8.43-8,15.91-31.67,29.7-31.08,28.3-42.44,12.36-7.27,12.36-7.27Z"/><path class="cls-13" d="M6977.77,2828.05s-3.08,13.91-7.87,30.75,1.06,18.25-12.18,19.19-4.48-23.47-13.24.94,1.65,38.78-14,45.54,3.61-14.69-15.65,6.76-13.88,10.72-24.08,33.58-9.92-11-18.1,28.48-2.61,46-21.81,54.38-19-.26-42.24,17.54-27-10.45-37.46,35.72-2.28,48.15-13.68,68.06,63.23-528.69,42.73-499.29-16.9,22.3-25.8,52.7-4.2,43.1-11.7,51.1-10.5,29.2-10.5,29.2l-17.3-16.4-24.9-29s-4.3-23.3,13-35.9,12.5,12.6,25.1-23.9-59.08,500.33-42.39,472.19,23.3-36.71,27.9-48.16,1.67-45.17,1.67-45.17,29-48,35.95-58.28,28.55-26.62,28.55-26.62,19.75,7.49,30.66-4,10.34-18.35,20.8-28.39,19-17.55,28.09-30.94,8.92-17.6,19.68-24.83,15,2.32,16.16-15.85,1.71-17.45,5.8-28.71,17.1-28.33,17.1-28.33l15.25-10Z"/><path class="cls-13" d="M6830.23,2763.48c4.07,9.65-11.9,51.62-17.3,77.24s-26,52.63-49.28,64.63-48.43,31.73-61,31.39,29.39-50.91,33.42-71.68,26.08-67.93,42.55-72.66S6826.16,2753.93,6830.23,2763.48Z"/><path class="cls-13" d="M6842.1,2778.1c10.3-11.7,62-41.7,84.9-54.5s-21.7,484.36-16.3,458.73,20.47-82.23,17.3-77.24c-9.64,15.17-35.27,24.19-51.74,28.92s20.84-487.31,17.64-466.41S6831.8,2789.8,6842.1,2778.1Zm6.56,424.39c1.72-9.15,17.56-33.11,24.74-35.26s18.52-6.06,22.76-12.72c1.37-2.15-5.2,22.73-7.59,34S6946.8,2674,6936.7,2679.6s-32.8,18.8-37.4,24S6846.94,3211.63,6848.66,3202.49Z"/><path class="cls-13" d="M6876.45,2732.27s-20.11-23.22-25.17,15.93-5.29,51.25-12.23,69.52-9.39,16.58-15.21,45.8-1.73,32.46-19.5,48.65-32.28,21.69-46.3,27.9-19.68-3.89-34.77,9.9-14.38,2.1-31.4,25.32-11.82,3.29-23.12,37.72,10.6,28.78-13.58,53.76-16,4.54-32.21,37-16.09,45.47-26.88,56.5-3.34,26.8-30,34.77c-15.47,4.47,46.75-519.64,43.95-503.84l43.8,29.6s21-9,24.2-29.5-78.57,521.92-64.51,497.69-10.58,7.64,20.43-32.31,12.49-19.57,35.91-57,33.35-35.46,36.71-57.26-15.72-31.26,16.37-53.16,11.44-21.22,40.69-22.2,21.79,12.27,37.94-11.88,12.72-32.08,25.73-52.24,15.46-55.8,15.46-55.8,17.77-41.9,27.83-52.06,28.55-12.61,28.55-12.61l7.78-19.34Z"/><path class="cls-13" d="M6840.5,2695.69s-7.74,35.46-14.94,38.11-4.54,6.84-18.87,13.15-4,2.86-30.87,18.84-12.52,11.87-34.51,42.62-10.77,16.13-25.6,39.73-5.69,16.82-18.74,44-1.26,24.57-21.05,47,1.86,29.89-23.83,40.7-20.63,3.38-36.24,23.55,15.7,8.75-17.36,27.31-22,36.06-36.7,59.46-26.73,26.49-35.33,32.09-11.14,3.71-24.11,20,43.15-474,43.15-474L6439.74,3170l44.49-88.1s49.48-21.39,55.93-34.38,51.61-50.93,51.61-50.93,18.32-.26,29.61-28.49,16.9-34.13,20.37-53.52-12.16-44.35,4.37-56.28,58.62-31.38,58.62-31.38,20.43-37.81,25.6-42.44,30.07-58.88,32.59-65.2,37.69-47.92,37.69-47.92Z"/><path class="cls-13" d="M6644.48,3023.07s2.17,23.89-9,34.51-16.1,2.64-32.42,26.08-3.59,36.9-19.93,54.94-19.37,21.74-33,29-19.49,31.14-19.49,31.14l-23.78-15.44-2.17-24s4-4.56,16-13.05,18.4-8.36,26.5-14.08,20.09-16.51,24.48-24.67,12.35-24.38,17.24-32.42,13.75-21.43,16.25-21.34,15.91,0,21.3-5.37S6644.48,3023.07,6644.48,3023.07Z"/><path class="cls-13" d="M7048.46,2907.06s-14.78,4.89-36.62,25.94-17.68-21-25.14,20.64-6.3,40.21-17.86,59-20.69,36.7-21.45,38.47-2.07,27.65-5.88,33.72,13.66,47.3,13.66,47.3l34.22-43,95.76-132Z"/><path class="cls-13" d="M6909.4,2794s-47.7,1.8-54.5,11-19.7-4.8-24.6,2.8-16.5,18.3-15.2,22.6,3.4,30.6,2.2,33.9S6856,2901,6856,2901Z"/><path class="cls-13" d="M6737.84,3040.23c4.36-4.65,14.05-24.23,9.77-33.58s-28,5.73-31,11.93S6723.81,3055.05,6737.84,3040.23Z"/><path class="cls-13" d="M6558.8,3675.7s29.1-47.5,32.5-115.5-11.2-122.7,14.3-177.3,45.9-71.5,42.2-121.7-14.2-30.2-2.9-93.8-.7-59.6,3.8-89.6,18.2-56.1,18.2-56.1l-21.1-47.8,33.3-20s1.3,30.7-.2,56,5.1,42.4,5.8,62.6,3.2,30.8-.3,58.8-18.6,45.1-18.2,60,8.3-.9,11.7,30.9,14.1,26.3-6.4,69.9-17,12.3-31.3,68.6-13.4,35.9-8.6,64.9,18.2,4.9,4.7,50.3-16.8,50.9-20.2,73.7,9-5.2-2.7,37.8-13.5,53.8-9,58.9-7.4,19-7.4,19Z"/><path class="cls-13" d="M6624.7,3647.1s-1.9-12-3.3-27.7-6.5-9.7,3.6-25.9,10.7,8.8,10-16.2-13.2-21.3-3.1-43.9,1.7,13.1,10.1-22.6,7.5-22.8,8.5-48.7,11.1-5.2,5.3-38.5-12.1-30.7.3-58.4,14.9-22.4,27.5-60.5,24.3-25.8,18.2-65.8-13-31.6-10.3-57,2.9-20.7,10.9-63.3,7.1-34,5.6-63.7-8.8-32.4-5.1-46.3.1-30.9.1-30.9l18.2-9.6,27.8-10.4s9.9,9.9-.2,38.1-13.4,6.4-13.1,44.5.3,43.4-4,80-6.9,49.6-6.9,62,12.6,29,12.6,29-7.8,63.1-10.1,77.5-14,49.8-14,49.8-17.7,18.9-22.6,38.7-2.4,23.2-7.5,41.7-9.4,33.1-12.4,51.8-1.6,21.1-7.7,38.2-12.4,16.4-7.7,28.6,4,12.6,4.3,24-4.6,37.2-4.6,37.2l-8.8,24Z"/><path class="cls-13" d="M6759.4,3511.1c-6.1-1-6.6-45-10.2-66.8s4-62.3,18.5-97.1,28-76.4,37.9-91.1-7.3,65.4-4,82.5.6,71.6-10.8,93.9S6765.5,3512.1,6759.4,3511.1Z"/><path class="cls-13" d="M6638.8,3097.8c-4.9,19.5-37.2,98.8-51.7,133.5s-22.8,102.1-19.1,123.9,9.3,73.6,10.2,66.8c2.9-20.5,20-56.2,31.4-78.6s22.6-97.6,19.2-114.7S6643.7,3078.3,6638.8,3097.8Zm-28.7,172c1.5,7.5-3.5,40.6-8.5,50.5s-12.6,25.6-13.8,34.6c-.4,3-2.9-19.8-4.5-29.4s2-39.2,8.4-54.5,20.6-50.2,22.8-58.8-5.9,50-4.4,57.6Z"/><path class="cls-13" d="M6733,3584.6s22.8-10,14.7-39.3-11.6-37.1-11.8-56.2,2.2-21.1-2.2-45.5-8.7-21.5.2-52.3,18.5-51.3,27.5-71.6,16.5-20.9,24-47.2,10.5-18.2,16.6-52.3,8.2-16,6.4-50-17.1-4.7-6-48.3,11.1-21.7,13.7-60.4-1.5-46.3,3.6-65.7-5.7-20,12.7-56.4,13.8-56,13.8-56l-42.9,32s-14.1,30.2-10.8,47.1,8.3,5.7,4.8,36.8,5.9-17.1-6,43.5-3.7,26.5-10.4,76.7-15.1,60.8-11,77.8,21.8.1,3.6,51.2-2.4,26.3-24.9,61.5-20.8,18.5-25.9,52-.1,34.4-4,61.8,5.1,51.8,5.1,51.8-1,46.2-5.6,64.1-18.4,41.4-18.4,41.4l-.1,20.8Z"/><path class="cls-13" d="M6772.2,3563.9s-4.9-30.4-.1-40.5,1.4-9.5,10.6-30.3,2.2-6.5,18.3-47.9,6.1-21.9,13.7-66.4,3.4-22.4,7.7-54.1-.8-16.8,1-48.6-6.5-16.3,1.9-53.1-10.6-15.7,6.1-52.6,15-26.4,21-57-15,13.4,5.1-37,6-47.7,10.3-79.1,12.6-47.5,17.7-61.1,7.6-15.4,12.6-40.5,5.3-72.5,5.3-72.5l34.9-18.4-7.6,105.5s-32,71.4-33,86.8-24.5,91.6-24.5,91.6a105.08,105.08,0,0,0-14.3,52.1c-.1,30.2-2.7,40.5.6,56.3s23.1,12.1,13.9,39-36,88.3-36,88.3-4.3,46.9-6.9,55.7-5.3,71-5.4,77.7-14.6,73.4-14.6,73.4Z"/><path class="cls-13" d="M6824.2,3135.6s-9.1-11.7-3.6-31.4,11.7-20.6,17.2-54-8.6-26.3-1.4-56.5,8.5-36,16.8-56.5,5.6-41.7,5.6-41.7l23.3-18.9,9.1,11.8s-1.7,7.4-8.4,26.7-11.7,26.8-16.3,39.8-10.6,33.7-11.4,43.8-2.2,29.3-3.5,39.9-4.1,29.1-6,32-12.4,18.9-14.9,28.4S6824.2,3135.6,6824.2,3135.6Z"/><path class="cls-13" d="M6545.3,3683.5s10-20.4,20.5-58.9,20.2-8.3,13.2-42.2-7.5-31.5-4.2-56.6,4.8-46.4,4.9-48.6-6.9-19-5.8-27.1-25.2-12.2-25.2-12.2l-13.4,66.4-34,192.6Z"/><path class="cls-13" d="M6581.2,3165.8s37.2-56.6,40-70.4,16.9-19.9,18.6-30.4,7.9-30.9,5.7-32.1-11.3-15.7-11.2-19.1-40.8,21.5-40.8,21.5Z"/><path class="cls-13" d="M6746.3,3235.8c-2,8-3.5,31.2,2.7,31.7s20.1-36.6,20.5-43.9S6752.6,3210.4,6746.3,3235.8Z"/></g><path class="cls-14" d="M6887.74,3180.63l22.46-267.13-38.6-43.9-13.78,279.67-14.65-246.06-56.79-113.74a20.34,20.34,0,0,0-34.34-3.28l-21.95,14.7c-9.47,1.62-16.91,21.12-20.72,30l-137.31,317.78-70.45-85.8,96-339.57,163-52.95,114.77,192.61Z"/><polygon class="cls-14" points="6899.9 3439.7 6865.8 3462.2 6866.7 2930.9 6910.2 2913.5 6899.9 3439.7"/><polygon class="cls-15" points="6857.56 2602.33 5554.14 2548.62 5529.44 2620 6833.53 2694.65 6857.56 2602.33"/><polygon class="cls-16" points="6857.56 2602.33 6961.29 2778.35 6933.26 2864.93 6833.53 2694.65 6857.56 2602.33"/><polygon class="cls-17" points="6933.26 2864.93 6855.51 2862.22 6741.96 2689.36 6833.53 2694.65 6933.26 2864.93"/><polygon class="cls-18" points="6696.01 2689.86 6812.68 2615.38 5492.09 2554.76 5339.25 2613.38 6696.01 2689.86"/><path class="cls-19" d="M6692.85,2674.44l76.84-46a3.72,3.72,0,0,0,1.68-5.15,4,4,0,0,0-3.32-2.11L5510,2563.29c-.4,0-13.78,2.12-14.19,2.31L5389.91,2604c-4.15,1.25,3.44,4.52,7.74,4.77l1272.66,69.25C6671.21,2678.09,6692.34,2674.72,6692.85,2674.44Z"/><polygon class="cls-20" points="6700.85 2792.19 6696.01 2689.86 5339.25 2613.38 5350.99 2701.44 6700.85 2792.19"/><polygon class="cls-21" points="6700.85 2792.19 6814.67 2716.21 6812.68 2615.38 6696.01 2689.86 6700.85 2792.19"/><polygon class="cls-22" points="6587.22 3021.07 6662.1 2747.11 5298.39 2668.99 5272.4 2740.03 5277.4 2780.43 5258.01 2779.75 5212.32 2905.04 6587.22 3021.07"/><path class="cls-15" d="M6581.22,2997.85l63.72-223.62c3-10.3-4.78-20.57-16.07-21.27l-1307.73-73.47a17.38,17.38,0,0,0-17.49,11l-26.33,69.12,10.17,21.27-18-.63-37.88,99.44c-4,10.37,3.55,21.54,15.12,22.54l1316,108A17.78,17.78,0,0,0,6581.22,2997.85Z"/><polygon class="cls-17" points="6622.9 3073.75 6587.22 3021.07 5212.32 2905.04 5274.42 2957.73 6622.9 3073.75"/><polygon class="cls-23" points="6622.9 3073.75 6700.49 2802.59 6662.1 2747.11 6587.22 3021.07 6622.9 3073.75"/><polygon class="cls-24" points="6853.76 2900.78 6868.02 3149.43 6951.2 3157.13 6934.92 2906.41 6853.76 2900.78"/><polygon class="cls-25" points="6969.43 2872.19 6876.19 2868.94 6876.53 2879.06 6853.76 2900.78 6934.92 2906.41 6969.43 2872.19"/><polygon class="cls-26" points="6984.31 3122.86 6961.6 2781.74 6927.64 2855.32 6951.2 3157.13 6984.31 3122.86"/><polygon class="cls-24" points="6855.51 2862.22 6861.4 3167.3 6917.29 3163.01 6927.64 2862.51 6855.51 2862.22"/><polygon class="cls-27" points="5276.5 2924.9 5222.3 2939.4 6594.9 3091.3 6649.8 3066.9 5276.5 2924.9"/><polygon class="cls-28" points="5278 2929.4 5254.1 2935.4 6587.3 3082.6 6621.6 3070.9 6546.6 3058.9 6551.9 3056.8 5346.6 2932.1 5332.1 2936.4 5278 2929.4"/><polygon class="cls-24" points="6873.9 3205.9 6872.1 3458.5 6861.4 3465.3 6951 3479.6 6954.5 3217 6873.9 3205.9"/><polygon class="cls-29" points="6988.8 3196.5 6906.6 3188 6873.9 3205.9 6954.5 3217 6988.8 3196.5"/><polygon class="cls-30" points="6986.5 3447.7 6988.8 3196.5 6954.5 3217 6951 3479.6 6986.5 3447.7"/><polygon class="cls-24" points="6864.7 2932.8 6861.4 3190.7 6945.7 3204.7 6949.1 2942.1 6864.7 2932.8"/><polygon class="cls-31" points="6983.4 2921.6 6897.7 2916.2 6864.7 2932.8 6949.1 2942.1 6983.4 2921.6"/><polygon class="cls-30" points="6981.1 3172.8 6983.4 2921.6 6949.1 2942.1 6945.7 3204.7 6981.1 3172.8"/><polygon class="cls-29" points="5282 3205.9 5230.6 3223 6594.9 3413.3 6644.1 3387.3 5282 3205.9"/><polygon class="cls-32" points="5230.7 3205.2 5222.3 2939.4 6594.9 3091.3 6593.5 3390.3 5230.7 3205.2"/><path class="cls-33" d="M5239.9,3180.4l-6.2-197.2c-.5-15.1,10.1-27.3,25.1-25.7l1302.6,138.7c12.7,1.3,25.9,15.7,25.8,28.6l-3.8,234.9c-.1,15-14.1,27.2-28.9,25.4L5254,3208.4C5241.9,3206.8,5240.4,3192.7,5239.9,3180.4Z"/><polygon class="cls-32" points="5236.9 3480.3 5235.9 3440.5 5251.3 3433.1 5235.1 3409.1 5230.6 3223 6594.9 3413.3 6593.5 3712.4 5236.9 3480.3"/><path class="cls-33" d="M5248.5,3463.6l-.5-26.1,9.8-4.4-10.1-15.6-2.8-157c-.5-7.4,7-21.1,17.1-20.2l1302.6,177.4c8.2,1.1,18.9,11.1,18.8,19.4l-4.2,245.8c0,10.1-8.3,25.4-18.3,23.8L5260.2,3484.2C5252.5,3483,5248.7,3471.5,5248.5,3463.6Z"/><g class="cls-34"><path class="cls-35" d="M5184,3003.8s74.7,55.5,228.5,61.5,298.7-22.7,394.3,25.9,109.9,87.5,231,80,87.6-27.7,221.4-6.4,139.2-2,203.4,6.4,108,34.6,108,34.6l136.8-41,5.7,63.8s-72.8,2.7-129.6,0-104.8,10.2-152.3,11.7-75.4,6.4-136.2,0-82-35.4-117-34.5-8,15.9-86,22.8-78.2,27.3-154.6-11.6-7.9-32.5-121-59.6-66.9-25.5-140.2-15.9-33.6,35-122.6,9.6-97.8-31.8-146.5-38.2,1.1,17.3-84.5-4.8-108.3-25.5-125.8-16.7-35-14-35-14Z"/><path class="cls-35" d="M5169.7,3130.3s30.2-3.7,68.5-6.6,30.4-12.5,55.8,6.6-33.5,20.7,25.4,19.1,65.6-25.6,105.7-6.4-32.5,3.4,40,19.2,43.9,14.2,102.8,15.8-1.6,21.4,82.8,9.9,86-23.6,135.4,0,33.7,28.5,106.8,52.3,30.1,46.5,130.5,34.3,89.2-25.3,144.9-20.3,44.6,5.3,133.8,20.3,70.2,13.4,141,10.2,86-17.1,113.8-10.2,71.7,0,71.7,0v34.9l-9.9,53.3s-35.2,19.1-88.3,0,1.5-25.7-87.3-24.8-101.2.9-180.9-7.1-106.7-12.7-135.4-12.7-82.8,24.5-82.8,24.5-137-14.5-167.6-18.7-98.4-26.5-98.4-26.5-22.3-33.8-62.1-43.2-51-4.4-87.6-14-65.3-17.9-105.1-23.3-47.1-2.9-79.3-14.5-23-23.7-57.1-14.5-34.1,7.8-61.1,8.5-80.9-8.5-80.9-8.5l-45-16.7Z"/><path class="cls-35" d="M5320.8,3388.1c9.8-11.7,112.6-13.1,167.7-20.3s139.7,7.2,202.8,34.7,143.3,53.1,165.3,72-142.9-13.4-186.6-6.9-166.9,1.7-204.9-19.9S5310.9,3399.9,5320.8,3388.1Z"/><path class="cls-35" d="M6428,3152.6c-39.3-9.2-183.8-70.7-246.9-98.2s-209.2-42.9-264.2-35.6-182.2,18.6-167.7,20.3c44.1,5.3,106.1,38,144.1,59.6s199,42.5,242.8,36S6467.3,3161.8,6428,3152.6Zm-364.2-53.7c-19.3,2.9-90.1-6.3-106.9-15.8s-44-23.9-63.4-26.2c-6.4-.8,49.6-5.8,73.8-8.9s88.5,3.6,116.3,15.7,91.4,39.2,108.7,43.2-109.2-10.9-128.5-8Z"/><path class="cls-35" d="M5182.4,3338.1s-4.8,43.8,73.3,27.9,100.3-22.7,144.9-23.2,46.2,4,108.4-4.7,60.5-16.8,121,0,96.4,35.1,132.6,52.2,28.4,31.5,80.1,45.8,29.4,20.1,101.1,31.5,27.1,15.6,108.3,12,31.9-33,119.5-12,36.8,21.1,123.4,25.8,109.3-3.2,148.2,6.4,53.3-11.1,115.4,23.9,113.1,26,113.1,26l-21.9-82.1s-53-26.8-96-20.4-23.3,15.9-91.3,9.6,32.5,11.1-93.8-11.1-57-6.8-165.4-19.4-122.6-28.4-167.2-20.5-27,41.9-123.4,7.4-58.2-4.4-112.3-47.3-17.5-39.8-89.2-49.3-79.6.1-138.6-7.1-126.5,10.3-126.5,10.3-106.1-1.4-141.9-10.3-73.6-34.9-73.6-34.9h-48.3Z"/><path class="cls-35" d="M5182.4,3413.3s76.6-9.6,94.1-.6,20.3,2.6,57.3,20.2,12.3,4.2,88.8,34.7,43.4,11.5,137.4,25.8,47.8,6.4,116.3,14.3,39.8-1.6,111.5,1.6,45.9-12.8,120.9,3.2,49.5-20.6,114.9,11.2,43,28.6,106.7,39.8-12.7-28.7,79.6,9.6,103.3,11.2,171.1,19.1,94.9,23.9,120.4,33.4,26.6,14.4,78.6,23.9,161.9,9.5,161.9,9.5v66.9l-235.7-13.7s-126.6-60.8-161.3-62.6-182.8-46.4-182.8-46.4-33.5-27.1-103.5-27.1-90.9-4.8-131.4,1.6-56.5,44.6-107.5,27.1-160.8-68.5-160.8-68.5-103.5-7.9-121-12.7-158.3-9.6-174-9.6-152.6-27.5-152.6-27.5Z"/><path class="cls-35" d="M6113.4,3509.4s38.2-17.5,77.2-7.2,33.5,22.3,104.4,32.6,71.6-16.7,132.9-3.2,73.3,15.9,110.7,31.9,90,10.4,90,10.4l15.4,44.6-38.5,17.5s-15.1-3.2-51.8-15.9-47.8-22.3-72.5-31-65.3-20.1-87.6-21.6-65.3-3.9-88.4-6.3-62.6-7.6-66.9-11.4-28.7-23.7-47.8-28.5S6113.4,3509.4,6113.4,3509.4Z"/><path class="cls-35" d="M5182.4,2978.1s35.2,19,111.5,39-5.4,38.8,81.7,25.1,82.3-14.6,136.5-8.6,101.9,8.8,106.7,9,52.7-13.4,70.1-11.4,59.1-48.5,59.1-48.5l-137.6-25.2-405.7-63.7Z"/><path class="cls-35" d="M6340.4,3042.5s86,70.9,114.7,76.2,25.5,32.3,47.8,35.5,62.1,14.9,67.7,10.6,50.2-21.8,58.1-21.8,0-78.3,0-78.3Z"/><path class="cls-35" d="M5976,3360.5c-16.1-3.7-68.1-6.5-76.8,5.5s60.5,38.3,76.8,39.1S6027.4,3372.4,5976,3360.5Z"/><path class="cls-36" d="M5184,3009.8s74.7,55.5,228.5,61.5,298.7-22.7,394.3,25.9,109.9,87.5,231,80,87.6-27.7,221.4-6.4,139.2-2,203.4,6.4,108,34.6,108,34.6l136.8-41,5.2,57.9h.5l-5.7-63.8-136.8,41s-43.8-26.2-108-34.6-69.6,14.8-203.4-6.4-100.4-1.1-221.4,6.4-135.4-31.4-231-80-240.5-19.9-394.3-25.9-228.5-61.5-228.5-61.5l-22.3,73.5s.5.6,1.3,1.6Z"/><path class="cls-36" d="M5319.4,3155.3c58.9-1.6,65.6-25.6,105.7-6.4a77.66,77.66,0,0,1,9,4.8c4.1-.5,9.3-2-9-10.7-40-19.2-46.7,4.8-105.7,6.4-10,.3-16.4.4-20.6.4C5293.3,3156,5279.9,3156.4,5319.4,3155.3Z"/><path class="cls-36" d="M5238.2,3129.6c38.2-2.9,30.4-12.5,55.8,6.6a19.76,19.76,0,0,1,5.9,6.3c1.6-2.9,1.2-6.8-5.9-12.2-25.4-19.1-17.6-9.6-55.8-6.6s-68.5,6.6-68.5,6.6l4,5.4C5182.9,3134.7,5207.9,3131.9,5238.2,3129.6Z"/><path class="cls-36" d="M6557,3274.7c-27.8-7-43,7-113.8,10.2s-51.8,4.8-141-10.2-78-15.3-133.8-20.3-44.6,8.1-144.9,20.3-57.3-10.5-130.5-34.3-57.5-28.8-106.8-52.3-51-11.5-135.4,0-23.9-8.3-82.8-9.9-30.3,0-102.8-15.8c-14.5-3.2-23.2-5.1-28.1-6.2,7.6,7.7-32-1,28.1,12.1,72.5,15.8,43.9,14.2,102.8,15.8s-1.6,21.4,82.8,9.9,86-23.6,135.4,0,33.7,28.5,106.8,52.3,30.1,46.5,130.5,34.3,89.2-25.3,144.9-20.3,44.6,5.4,133.8,20.3,70.2,13.4,141,10.2,86-17.1,113.8-10.2,71.7,0,71.7,0v-5.9S6584.8,3281.6,6557,3274.7Z"/><path class="cls-36" d="M5322.3,3392.9c15.4-10.7,112.9-12.2,166.1-19.2,55-7.2,139.7,7.2,202.8,34.7,62.3,27.1,141.1,52.4,164.3,71.3,3.4-.9,4.1-2.5,1-5.1-22-18.9-102.2-44.5-165.3-72s-147.8-41.9-202.8-34.7-157.9,8.6-167.7,20.3C5319.6,3389.5,5320.2,3391.1,5322.3,3392.9Z"/><path class="cls-36" d="M5893.4,3062.7c19.4,2.3,46.7,16.7,63.4,26.2s87.6,18.7,106.9,15.8,145.7,11.9,128.4,7.9a199.1,199.1,0,0,1-20.2-6.7c-33.5-2.9-95.2-9-108.2-7.1-19.3,2.9-90.1-6.3-106.9-15.8-12.8-7.3-31.7-17.3-48.5-22.8C5897.7,3061.5,5891,3062.4,5893.4,3062.7Z"/><path class="cls-36" d="M5749.2,3039.1c4.7.6,9.6,1.6,14.7,2.7,33.7-4.3,112.7-11.8,153-17.1,55-7.2,201.1,8.1,264.2,35.6,55.6,24.2,174.2,74.8,228.6,92.8,18.9,1.4,27.4,1.6,18.3-.5-39.3-9.2-183.8-70.7-246.9-98.2s-209.2-42.9-264.2-35.6S5734.7,3037.3,5749.2,3039.1Z"/><path class="cls-36" d="M5230.6,3280.6s37.8,26.1,73.6,34.9,141.9,10.3,141.9,10.3,67.5-17.6,126.5-10.3,66.9-2.5,138.6,7.1,35,6.4,89.2,49.3,15.9,12.8,112.3,47.3,78.8.5,123.4-7.4,58.9,8,167.2,20.5,39-2.9,165.4,19.4,25.8,4.8,93.8,11.1,48.3-3.2,91.3-9.6,96,20.4,96,20.4l20.3,76.4,1.5-.2-21.9-82.1s-53-26.8-96-20.4-23.3,15.9-91.3,9.6,32.5,11.1-93.8-11.1-57-6.8-165.4-19.4-122.6-28.4-167.2-20.5-27,41.9-123.4,7.4-58.2-4.4-112.3-47.3-17.5-39.8-89.2-49.3-79.6.1-138.6-7.1-126.5,10.3-126.5,10.3-106.1-1.4-141.9-10.3-73.6-34.9-73.6-34.9h-48.3v5.9Z"/><path class="cls-36" d="M6579.9,3649.6c-52-9.5-53.1-14.4-78.6-23.9s-52.5-25.5-120.4-33.5-78.7,19.1-171.1-19.1-15.9,1.6-79.6-9.6-41.4-8-106.7-39.8-39.8,4.7-114.9-11.2-49.2,0-120.9-3.2-43,6.4-111.5-1.6-22.3,0-116.3-14.3-60.9,4.7-137.4-25.8-51.8-17.2-88.8-34.7-39.8-11.1-57.3-20.2-94.1.6-94.1.6l2.2,5.6c12.2-1.4,76.1-8.5,91.9-.3,17.5,9.1,20.3,2.6,57.3,20.2s12.3,4.2,88.8,34.7,43.4,11.5,137.4,25.8,47.8,6.3,116.3,14.3,39.8-1.6,111.5,1.6,45.9-12.7,120.9,3.2,49.5-20.6,114.9,11.2,43,28.6,106.7,39.8-12.7-28.7,79.6,9.6,103.3,11.2,171.1,19.1,94.9,23.9,120.4,33.4,26.6,14.4,78.6,23.9,161.9,9.5,161.9,9.5V3659C6741.8,3659.1,6631.9,3659.1,6579.9,3649.6Z"/><path class="cls-36" d="M6190.7,3508.1c39,10.4,33.5,22.3,104.4,32.7s71.6-16.7,132.9-3.2,73.3,15.9,110.7,31.9,90,10.4,90,10.4l13.6,39.5,1.8-.8-15.4-44.6s-52.6,5.6-90-10.4-49.4-18.3-110.7-31.9-62.1,13.5-132.9,3.2-65.4-22.3-104.4-32.7-77.2,7.2-77.2,7.2l12.1,1.5C6139.8,3506.6,6165,3501.3,6190.7,3508.1Z"/><path class="cls-36" d="M5976,3366.4c17.8,4.1,25,10.8,26.5,17.8,2-8.9-3.7-18.4-26.5-23.7-16.1-3.7-68.1-6.5-76.8,5.5-1.2,1.6-.9,3.5.4,5.5C5909.3,3360,5960.2,3362.7,5976,3366.4Z"/><path class="cls-35" d="M6971.65,2699.46s-100.08,23.43-276.89-2.24-334.35-73.38-456.34-58.62-148.73,38.54-284.62,10-92.41-35.84-250.6-47.36-158.11-28.32-233.53-34.95S5337.3,2569,5337.3,2569l-145-54.58-23.59,42.51s82.29,16,147.71,25.05,116.72,27.28,170.5,37.56,84.19,19.05,155.17,26.42,102.95-8.32,142.62-.83,4.77,12.47,91.93,32.22,81.78,33.76,179.24,22.05,17.73-20.69,153.8-17.26,83.1-4.51,164,16.33,28.86,30.42,137.23,30.29,120-2.82,177.13,2.27-5.91,11.6,97.6,13.11,130.25,3.53,147.84,13,43.72-2.78,43.72-2.78Z"/><path class="cls-35" d="M6863.7,2802.27s-33.43-8.37-76.23-17.77-31.31-14.4-65.42-6.28,32.6,20.65-34.1,8.12-68-30.19-118.71-24.85,36.13,8.56-50.71,5.34-53.78,1.23-121.36-9.13-3.92,14.87-97-9.29-91.71-32.81-154.27-26.28-46.09,13-135.81,15.08-46.83,25.88-157.93-1.8-94.86-34.53-159.74-42-52.26-5-157.87-12.1-83.6-4.52-163.49-20.41-93.47-28.37-127-29-81.67-13.86-81.67-13.86l-9.33,23.89-2.94,38.32s34.93,19.83,100.67,17.12,5.22-17.83,106.16,0,115.17,20.22,208.08,30.16,125.06,12,157.68,17.5,87.81,32.78,87.81,32.78,160,16.68,196,19.73,119.24.95,119.24.95,34.47-18.81,82.36-17.54,59.29,6.87,103.6,7.41,79.23.46,126,4.39,54.49,7.2,94.27,5.49,32.53-11.78,68.9,1.2,36.71,12,67.43,17.66,94.41,9.89,94.41,9.89l55.73-2.66Z"/><path class="cls-35" d="M6712.86,2935.7c-8.06-9.89-124.9-30.77-185.69-46.4s-161.13-22.12-240.41-15.58-177.5,8.53-207.62,17.19,166.46,18.5,214.53,31.48,189.75,33.53,238.94,26.14S6720.92,2945.58,6712.86,2935.7Z"/><path class="cls-35" d="M5514,2560.13c47.18,1.34,228.38-12.66,307.66-19.3s250,11.21,310.65,26.83,202.66,48,185.7,46.39c-51.76-4.9-131.07,5.44-180.25,12.84s-238.22-9.5-286.39-22.49S5466.73,2558.78,5514,2560.13ZM5943.49,2594c21.22,5.75,104.41,13.15,126,9.9s56.6-7.84,79.34-5.64c7.48.76-55-13.53-81.74-20.36s-101.85-14.66-136.77-11.77-114.59,9.12-135.38,8.49S5922.28,2588.26,5943.49,2594Z"/><path class="cls-35" d="M6883.93,2928.25s-6.28,30.9-91,4.83-108.25-34.89-159-44-53.72-6.27-122.24-24.17-64.42-23.26-138-23.42-119.26,5.25-165.15,10.06-40.79,16-103.52,15.8-38.9,8.05-123.64,2-35,5.39-126.63-12.82-27.52-28.67-133-31.34-47.58,7.24-147.57-6.25-123.67-23.32-170.66-24.35-57.81-17.93-138-6-135.84-4.13-135.84-4.13l46.83-51.9s67.62-8.05,114.91,4.6,22.28,15.39,101.52,24.25-40.07,1.31,109.9,10.53,66.82,6.33,193.66,18.86,147.44,4.33,196.08,18.43,19.63,33.91,138.67,28.95,67.46,8.25,140.66-10.61,30.64-23.75,114.84-16.41,90.71,15.57,159.83,22,141.39,31.54,141.39,31.54,121.39,19.54,164.49,20.44,93.29-9.66,93.29-9.66l55,9.32Z"/><path class="cls-35" d="M6863.92,2979.68s-84.8-21.46-107.11-18.64-23.84-2.13-70.64,2.74-15.13.48-110.5,6.56-52.51-.53-163.48-9-56.16-5-136.34-12.75-44.92-8.77-127.46-20.55-48.92-17.61-138.65-21.24-50.9-23.69-133.87-14.57-56.63,11.24-132.31,6.5,22.21-17.14-93.35-8.86-120.74-12.31-200.12-20.08-114.49-2.09-146.17-.49-34.18,4.72-96,1.16S5083,2362,5083,2362l-16.3,46.3,208.47,519.34s160.59-17,200.53-11.53,220.7,3.69,220.7,3.69,45.35-12,125.22,1.56,104.87,14.36,149.37,26.52,52.49,41.45,115.3,39.33S6288,2971.53,6288,2971.53s120.06,14.68,141.37,14.73,183,24.08,200.78,27.1,181.23,10.82,181.23,10.82Z"/><path class="cls-35" d="M5777.06,2865s-38.85-19.36-86.16-19.91-44.23,8.77-127.75,2.05-77.17-25.3-150.62-28-87.74-3.25-134.69.31-105.3-10.37-105.3-10.37l-29.48,27.49,39.15,19.48s18.08.73,63.27-.9,60.44-6,90.91-7.24,79.78-1.12,105.58,2.18,75.5,10,102.42,12.87,73.4,7,79.27,5.16,39-10.64,62.09-10.24S5777.06,2865,5777.06,2865Z"/><path class="cls-35" d="M6980.35,2682.16s-45.24,6.12-137.55,5-4.17,27.57-99.91,1.32-90-25.95-153.27-32.35-118.59-13.74-124.07-14.53-56.46-19.38-76.9-21.39-54.38-44.62-54.38-44.62l163.67,9.4,479.47,35.12Z"/><path class="cls-35" d="M5643.32,2501.9s-117,31.84-151.13,29.85-37.72,17.2-64,15-74.79-1.81-79.95-5.89-51.37-24.61-60.42-26.12,21-53.5,21-53.5Z"/><path class="cls-35" d="M5678.71,2749.68c19.29.57,79.35,8.77,86.11,18.61s-79.25,14.45-98.07,11.79S5616.94,2747.93,5678.71,2749.68Z"/><path class="cls-36" d="M6970,2703.51s-100.07,23.43-276.89-2.24-334.34-73.39-456.33-58.63-148.73,38.55-284.62,10-92.41-35.84-250.61-47.35S5543.44,2577,5468,2570.24s-132.37,2.69-132.37,2.69l-145-54.58-21.36,38.58-.59-.12,23.59-42.51,145,54.58s57-9.42,132.37-2.69,75.33,23.54,233.53,34.95,114.62,18.7,250.6,47.36,162.74,4.76,284.62-10,279.42,33.05,456.34,58.72,276.89,2.24,276.89,2.24l5.7,54.54a19.43,19.43,0,0,1-1.93.83Z"/><path class="cls-36" d="M6776.73,2776.82c-66.7-12.53-68-30.18-118.7-24.84-5.12.52-8.85,1.09-11.47,1.6-4.56-1.16-10.09-3.16,13.11-5.65,50.72-5.34,52,12.32,118.71,24.85,11.33,2.09,18.49,3.44,23.36,4.31C6806.26,2782.36,6821.57,2785.19,6776.73,2776.82Z"/><path class="cls-36" d="M6876.26,2775c-42.8-9.4-31.32-14.4-65.42-6.28-4.14.95-6.88,2.06-8.42,3.11-1.12-2.35.47-4.89,10-7.16,34.1-8.12,22.62-3.12,65.42,6.28S6954,2788.7,6954,2788.7l-6,2.9C6937.9,2789.14,6910.12,2782.37,6876.26,2775Z"/><path class="cls-36" d="M5243.94,2632.17c33.5.57,47.18,13,127,29s57.77,13.32,163.49,20.4,93.09,4.65,157.87,12.11,48.64,14.2,159.74,42,68.2,3.88,157.93,1.8,73.24-8.55,135.81-15.08,61.16,2,154.27,26.29,29.46-1.08,97,9.28,34.51,5.91,121.36,9.13c17.48.61,27.77,1.07,33.77,1.18-10.73,3.73,36.84,5.49-35.32,2.87-86.84-3.22-53.77,1.23-121.35-9.13s-3.92,14.88-97-9.28-91.71-32.81-154.28-26.29-46.08,13-135.8,15.08-46.83,25.89-157.94-1.8-94.85-34.52-159.73-42-52.26-5-157.88-12.11-83.59-4.51-163.49-20.4-93.46-28.37-127-29-81.67-13.85-81.67-13.85l1.54-4C5162.17,2618.32,5210.44,2631.5,5243.94,2632.17Z"/><path class="cls-36" d="M6709.86,2938.69c-14.65-10.31-125.43-30.18-184.14-45.33-60.79-15.63-161.12-22.13-240.4-15.58-78.27,6.48-174.8,8.52-206.31,16.92-3.66-1.22-4-2.54.23-3.69,30.11-8.66,128.34-10.64,207.62-17.18s179.61,0,240.4,15.58,177.64,36.4,185.7,46.39C6713.82,2936.83,6712.69,2937.79,6709.86,2938.69Z"/><path class="cls-36" d="M6147.33,2602.31c-22.74-2.2-57.72,2.39-79.35,5.64s-104.92-4.16-126-9.9-169.3-20.1-148.51-19.48c5.2.18,14-.11,24.84-.64,39,4.46,110.94,12.27,125.21,16.17,21.21,5.75,104.41,13.15,126,9.9,16.5-2.53,40.72-5.69,61.45-6.17C6142.68,2600.64,6150.12,2602.6,6147.33,2602.31Z"/><path class="cls-36" d="M6318,2614.05c-5.48-.49-11.48-.8-17.47-1-37.19-9.5-125.24-29.88-169.77-41.34-60.79-15.63-231.38-33.38-310.65-26.83-69.84,5.77-218.54,17.4-285.34,19.18-21.92-2.67-31.67-4.21-20.78-3.93,47.18,1.34,228.38-12.66,307.66-19.3s250,11.21,310.65,26.83S6335.08,2615.65,6318,2614.05Z"/><path class="cls-36" d="M6844.4,2879.64s-50.1,10.46-93.3,9.66-164.49-20.44-164.49-20.44-72.27-25-141.38-31.54-75.54-14.64-159.83-22-41.65-2.45-114.85,16.41-21.61,5.65-140.65,10.61-89.94-14.94-138.68-28.94-69.33-6-196.07-18.44-43.7-9.63-193.67-18.86-30.65-1.76-109.9-10.53-54.13-11.49-101.51-24.25-114.91-4.6-114.91-4.6l-43.61,48.31-1.69-.46,46.84-51.9s67.62-8.05,114.91,4.6,22.28,15.39,101.52,24.25-40.07,1.31,109.9,10.54,66.82,6.33,193.66,18.85,147.44,4.34,196.07,18.44,19.64,33.9,138.68,28.94,67.45,8.26,140.66-10.61,30.64-23.74,114.84-16.41,90.71,15.57,159.83,22,141.39,31.54,141.39,31.54,121.39,19.54,164.48,20.44,93.3-9.66,93.3-9.66l55,9.32-1.65,4.05Z"/><path class="cls-36" d="M6883.26,2930.13l.66-1.78A6.44,6.44,0,0,1,6883.26,2930.13Z"/><path class="cls-36" d="M5207.82,2870.46c61.82,3.55,64.43.44,96-1.16s66.69-7.28,146.17.49,84.57,28.26,200.12,20.08,17.77,4.22,93.35,8.85,49.34,2.62,132.31-6.49,44.15,10.94,133.87,14.57,56.1,9.56,138.65,21.24,47.29,12.65,127.46,20.55,25.37,4.28,136.34,12.75,68.12,15,163.48,9,63.7-1.69,110.5-6.56,48.43.09,70.64-2.74,107.11,18.64,107.11,18.64l-4,3.46c-13.59-3.37-84.53-20.55-104.63-18-22.32,2.82-23.84-2.13-70.64,2.74s-15.13.47-110.5,6.56-52.51-.53-163.48-9-56.16-5-136.34-12.76-44.92-8.76-127.46-20.55-48.92-17.61-138.65-21.24-50.9-23.68-133.87-14.56-56.63,11.23-132.31,6.49,22.21-17.13-93.35-8.85-120.74-12.41-200.12-20.08-114.5-2.09-146.17-.49-34.19,4.71-96,1.16S5081.6,2366.1,5081.6,2366.1l1.4-4.1S5146.11,2866.91,5207.82,2870.46Z"/><path class="cls-36" d="M5689.36,2849.11c-47.22-.44-44.23,8.77-127.65,2.06s-77.17-25.3-150.72-28-87.74-3.25-134.69.31-105.3-10.37-105.3-10.37l-26.07,24.41-1.77-.86,29.47-27.49s58.45,14,105.31,10.37,61.14-3,134.69-.31,67.2,21.25,150.62,28,80.44-2.6,127.75-2.06,86.15,19.92,86.15,19.92-5.68-.5-14.16-1.3C5747.69,2858,5720.36,2849.49,5689.36,2849.11Z"/><path class="cls-36" d="M5677.07,2753.72c-21.39-.64-31.4,2.51-35,7,0-6.5,9.12-11.89,36.5-11,19.29.57,79.35,8.76,86.11,18.6.95,1.34,0,2.51-1.93,3.64C5754.82,2762.34,5696.16,2754.29,5677.07,2753.72Z"/><path class="cls-37" d="M6707.9,3170.4h0l5.2,58.2s-72.8,2.7-129.6,0-104.8,10.2-152.3,11.7-75.4,6.4-136.2,0-82-35.4-117-34.5-8,15.9-86,22.8-78.2,27.3-154.6-11.6-7.9-32.5-121-59.6-66.9-25.5-140.2-15.9-33.6,35-122.6,9.6-97.8-31.8-146.5-38.2,1.1,17.3-84.5-4.8-108.3-25.5-125.8-16.7c-14.4,7.2-28.7-6.8-33.4-12.1l-1.1,3.6s17.5,22.8,35,14,40.2-5.4,125.8,16.8,35.8-1.6,84.5,4.8,57.4,12.7,146.5,38.2,49.4,0,122.6-9.6,27.1-11.1,140.2,15.9,44.6,20.7,121,59.6,76.5,18.4,154.6,11.6,51-21.8,86-22.8,56.2,28,117,34.5,88.7,1.5,136.2,0,95.6-14.4,152.3-11.7,129.6,0,129.6,0Z"/><path class="cls-37" d="M5438,3156.3a15.29,15.29,0,0,0-3.1-2.6C5431.4,3154.3,5427.4,3153.8,5438,3156.3Z"/><path class="cls-37" d="M6628.7,3280.3v29.3l-9.9,53.3s-35.2,19.1-88.3,0,1.5-25.7-87.3-24.8-101.2.9-180.9-7.1-106.7-12.7-135.4-12.7-82.8,24.5-82.8,24.5-137-14.5-167.6-18.7-98.4-26.5-98.4-26.5-22.3-33.8-62.1-43.2-51-4.4-87.6-14-65.3-17.9-105.1-23.3-47.1-2.9-79.3-14.5-23-23.7-57.1-14.5-34.1,7.8-61.1,8.5-80.9-8.5-80.9-8.5l-45-16.7-26.4-35.8-3.3.4,30.3,41,45,16.7s53.8,9.2,80.9,8.5,27.1.7,61.1-8.5,24.9,2.9,57.1,14.5,39.5,9.1,79.3,14.5,68.5,13.7,105.1,23.3,47.8,4.7,87.6,14.1,62.1,43.2,62.1,43.2,67.8,22.3,98.4,26.5,167.6,18.6,167.6,18.6,54.2-24.5,82.8-24.5,55.8,4.8,135.4,12.7,92.1,7.9,180.9,7.1,34.2,5.7,87.3,24.8,88.3,0,88.3,0l9.9-53.3v-35Z"/><path class="cls-37" d="M5299.1,3149.9c1.9-2,3.1-4.6,1.2-8C5297.5,3148.2,5284.6,3150,5299.1,3149.9Z"/><path class="cls-37" d="M5857,3480.2c-.2-.2-.6-.4-.8-.6-18.6,6.2-148.3-17.6-186.4-11.9-43.8,6.6-166.9,1.7-204.9-19.9-33.5-19-127.2-41.7-142.5-54.8a7.63,7.63,0,0,0-1.1.8c-9.8,11.7,106.1,38,144.1,59.6s161.1,26.5,204.9,19.9S5879,3499.1,5857,3480.2Z"/><path class="cls-37" d="M5907.7,3060.1c16.9-1.9,44.8-4.7,60.1-6.7,24.2-3.2,88.5,3.6,116.3,15.7,21.2,9.3,63.4,27.2,89.8,37,15.1,1.3,23.8,1.9,18.3.6-17.3-4-80.9-31.1-108.7-43.2s-92.1-18.9-116.3-15.7-80.2,8.2-73.8,8.9A96.11,96.11,0,0,1,5907.7,3060.1Z"/><path class="cls-37" d="M6428.5,3158.2c-4.3-1-10.1-2.8-16.8-4.9-60.7-4.5-241.5-23.7-275.6-18.6-43.8,6.6-204.8-14.3-242.8-36-34.2-19.5-87.7-47.7-130.3-57.1-11.4,1.5-17.1,2.6-13.3,3,44.1,5.3,106.1,38,144.1,59.6s199,42.5,242.8,36S6467.8,3167.4,6428.5,3158.2Z"/><path class="cls-37" d="M6670.8,3550c-6.8,1-54.7,6.2-112.2-26.2-62.1-35-76.5-14.4-115.4-23.9s-61.6-1.6-148.2-6.4-35.8-4.8-123.4-25.8-38.2,8.3-119.5,12-36.6-.5-108.3-12-49.4-17.2-101.1-31.5-43.9-28.7-80.1-45.8-72.1-35.4-132.6-52.2-58.9-8.7-121,0-63.7,4.1-108.4,4.7-66.9,7.4-144.9,23.2c-58.4,11.9-70.4-9.7-72.8-21.3-.1,6.4,2.3,41.3,73.3,26.8,78-15.9,100.3-22.7,144.9-23.2s46.2,4,108.4-4.7,60.5-16.8,121,0,96.4,35.1,132.6,52.2,28.4,31.5,80.1,45.8,29.4,20.1,101.1,31.6,27.1,15.6,108.3,11.9,31.9-33,119.5-11.9,36.8,21.1,123.4,25.8,109.3-3.2,148.2,6.3,53.3-11.1,115.4,23.9,113.1,26,113.1,26Z"/><path class="cls-37" d="M6741.8,3726l-235.7-13.7s-126.6-60.8-161.3-62.6-182.8-46.4-182.8-46.4-33.5-27.1-103.5-27.1-90.9-4.8-131.4,1.6-56.5,44.6-107.5,27.1-160.8-68.5-160.8-68.5-103.5-7.9-121-12.7-158.3-9.6-174-9.6-152.6-27.5-152.6-27.5l.5,5.6s137,27.5,152.6,27.5,156.4,4.8,173.9,9.6,121,12.7,121,12.7,109.9,51,160.9,68.5,66.9-20.7,107.5-27.1,61.4-1.6,131.4-1.6,103.5,27.1,103.5,27.1,148.1,44.6,182.8,46.4,161.3,62.6,161.3,62.6l235.7,13.7Z"/><path class="cls-37" d="M6642.9,3619.1l-37.3,17s-15.1-3.2-51.8-15.9-47.8-22.3-72.5-31-65.3-20.1-87.6-21.6-65.3-3.9-88.4-6.3-62.6-7.6-66.9-11.4-28.7-23.7-47.8-28.5c-13.8-3.4-47.6-8.1-65.6-10.4a105.08,105.08,0,0,0-11.1,4.1s58.1,7.2,77.2,11.9,43.5,24.7,47.8,28.5,43.8,9,66.9,11.4,66.1,4.8,88.4,6.3,62.9,12.8,87.6,21.6,35.8,18.3,72.5,31.1,51.8,15.9,51.8,15.9l38.5-17.5Z"/><path class="cls-37" d="M5744,2987.4c-10.9,12.5-40.9,45.4-55,43.8-17.5-2-65.4,11.6-70.1,11.4s-52.6-3-106.7-9-49.3-5.1-136.5,8.6c-35.2,5.5-42.8,5.8-44.5,2.8.7,7.8-5.4,10.7,45,2.8,87.1-13.7,82.3-14.6,136.5-8.6s101.9,8.8,106.7,9,52.7-13.4,70.1-11.4,59.1-48.5,59.1-48.5Z"/><path class="cls-37" d="M5293.9,3017c-66.5-17.4-101.8-34.1-109.8-38.1l-1.2,4.7s35.3,19,111.5,39c27.9,7.3,34.6,14.4,36.3,19.9C5330.7,3037.1,5332.8,3027.2,5293.9,3017Z"/><path class="cls-37" d="M6629.2,3070.3h0c1.6,17.7,6.2,72.8-.5,72.8-8,0-52.6,17.5-58.1,21.8s-45.4-7.4-67.7-10.6-19.1-30.3-47.8-35.5c-23.5-4.3-85.6-52.8-107.1-70.1l-7-.5s86,70.9,114.7,76.2,25.5,32.3,47.8,35.5,62.1,14.9,67.7,10.6,50.2-21.8,58.1-21.8S6629.2,3070.3,6629.2,3070.3Z"/><path class="cls-37" d="M6002.7,3382.4c-1.3,11.8-17.1,23.1-26.7,22.6-14.1-.7-67.6-20.4-76.3-33.5-8.6,12,60.5,38.3,76.9,39.1C5987.6,3411.2,6007.2,3396,6002.7,3382.4Z"/></g><polygon class="cls-30" points="6640.9 3682 6644.1 3387.3 6594.9 3413.3 6593.5 3712.4 6640.9 3682"/><path class="cls-38" d="M6636.2,3670.5l2.4-261a6.57,6.57,0,0,0-6.5-6.6,6.2,6.2,0,0,0-3.5,1l-25.5,16.1a6.5,6.5,0,0,0-3,5.5l-1,263.4a6.64,6.64,0,0,0,6.5,6.6,7.32,7.32,0,0,0,4-1.3l24.1-18.4A8,8,0,0,0,6636.2,3670.5Z"/><polygon class="cls-30" points="6645.8 3361.4 6649.8 3066.9 6594.9 3091.3 6593.5 3390.3 6645.8 3361.4"/><path class="cls-38" d="M6640.9,3349.5l3.1-261.8a6.15,6.15,0,0,0-6.1-6.2,5.92,5.92,0,0,0-2.9.7l-22.2,11.5a17.76,17.76,0,0,0-9.5,15.4l-3.9,259.3a6.23,6.23,0,0,0,6.1,6.3,6.43,6.43,0,0,0,3.5-1l29.1-18.9A6.73,6.73,0,0,0,6640.9,3349.5Z"/><polygon class="cls-39" points="6355.9 3075.3 6385.1 3060 6380.2 3675.5 6352.4 3692.8 6355.9 3075.3"/><polygon class="cls-40" points="6355.9 3075.3 6234.2 3060 6234.2 3671.8 6352.4 3692.8 6355.9 3075.3"/><path class="cls-41" d="M6328.2,3086l-60.9-8.5c-13.2-1.8-24.8,9.5-24.8,24.2v536.5c0,11.8,7.7,22,18.2,24l58.2,11.5c13.5,2.7,25.8-8.8,25.9-23.9l2.7-539.5C6347.6,3098,6339.3,3087.5,6328.2,3086Z"/><polygon class="cls-39" points="5461.9 2978.1 5491.7 2965.6 5499.5 3525.8 5471.7 3543.2 5461.9 2978.1"/><polygon class="cls-42" points="5461.9 2978.1 5353.4 2965.6 5373.4 3525.7 5471.7 3543.2 5461.9 2978.1"/><path class="cls-41" d="M5436.9,2984.8l-50.7-6.6a19.85,19.85,0,0,0-22.3,17.1c-.1,1.1-.2,2.1-.2,3.2l15.5,497.3a20,20,0,0,0,16,18.9l42.7,8.6a20,20,0,0,0,23.8-19.8l-7.5-499.4A20,20,0,0,0,5436.9,2984.8Z"/><polygon class="cls-43" points="6377.11 2980.33 6466.64 2670.76 6333.42 2666.12 6243.92 2969.09 6377.11 2980.33"/><path class="cls-44" d="M6375.17,2964.06l76.06-276.22c-5-4.48-2.13-10.58-11.42-10.91l-85.16-5.57a15.19,15.19,0,0,0-14.88,10.79l-79.49,268.3a14.24,14.24,0,0,0,9.18,17.83,15.75,15.75,0,0,0,3,.6l91.7,7.3C6371.12,2976.82,6373.13,2971,6375.17,2964.06Z"/><polygon class="cls-45" points="6377.11 2980.33 6395.56 3004.89 6262.97 2993.77 6243.92 2969.09 6377.11 2980.33"/><polygon class="cls-46" points="6377.11 2980.33 6466.64 2670.76 6669.02 2548.53 6698.89 2595.8 6656.23 2594.02 6484.23 2694.29 6395.56 3004.89 6377.11 2980.33"/><polygon class="cls-47" points="6466.64 2670.76 6669.02 2548.53 6539.19 2544.01 6333.42 2666.12 6466.64 2670.76"/><path class="cls-48" d="M6474.25,2659.12l145.85-88.07a7.32,7.32,0,0,0-3.52-13.63l-81.45-2.84a7.17,7.17,0,0,0-4,1.06l-148.36,88a7.38,7.38,0,0,0-2.55,10.11,7.48,7.48,0,0,0,6.08,3.62l83.95,2.92A8.21,8.21,0,0,0,6474.25,2659.12Z"/><polygon class="cls-49" points="5484.16 2905.9 5583.61 2630.3 5471.63 2622.19 5375.12 2896.5 5484.16 2905.9"/><path class="cls-44" d="M5481.81,2889.91l87.89-242.39c3-8.1-6.64-13.14-14.92-13.83l-69.36.39a12.79,12.79,0,0,0-12.81,8.66l-80.7,225.43c-2.88,8-.4,20.19,7.68,20.88l65.38,10.48C5470.65,2900.13,5479.82,2895.44,5481.81,2889.91Z"/><polygon class="cls-45" points="5484.16 2905.9 5503.05 2929.37 5391.06 2921.27 5375.12 2896.5 5484.16 2905.9"/><polygon class="cls-47" points="5583.61 2630.3 5818.73 2516.11 5712.54 2511.01 5471.63 2622.19 5583.61 2630.3"/><path class="cls-48" d="M5592.2,2622.19,5784,2526.61c2.45-1.21,14.35-6.8,11.65-6.9l-73-3.64c-.4,0-14,5-14.29,5.2l-201.82,91.83c-2.44,1.12-.54,7,2.15,7.18l70.34,5.85C5579.36,2626,5591.79,2622.38,5592.2,2622.19Z"/><polygon class="cls-46" points="5583.61 2630.3 5484.16 2905.9 5502.34 2929.55 5585.49 2685.39 5597.18 2651.58 5652.22 2628.48 5816.12 2559.45 5859.99 2561.18 5818.73 2516.11 5583.61 2630.3"/><polygon class="cls-50" points="5353.4 2965.6 5384.7 2952.7 5491.7 2965.6 5461.9 2978.1 5353.4 2965.6"/><polygon class="cls-50" points="6234.2 3060 6262.9 3047 6385.1 3060 6355.9 3075.3 6234.2 3060"/><path class="cls-51" d="M5990,2970.65l61.06,5.13s22.86-4.31,32.17-24.39,46.79-134,46.79-134L6080,2743.15Z"/><path class="cls-52" d="M5937.29,2981.62l-164.76-15.24c-18.36-1.74-33.19-9.56-42.5-21-9.69-11.94-30.91-49.2-30.91-49.2L5762.61,2757c9.91-34.57,50.16-61.19,89.8-58.8l194.45-6.74s21.68,29.87,30.53,45.79c6.49,11.83,8,26.2,2.76,41.42l-50.41,148.64C6018.36,2961,5976.69,2985.3,5937.29,2981.62Z"/><path class="cls-53" d="M5913.84,2945.38l-164.77-15.24c-37.6-3.51-60.49-32.73-51.15-65.32l41.24-144.05c9.91-34.58,50.16-61.19,89.8-58.81l173.94,10.56c41.53,2.55,65.85,34.21,53.8,69.91l-50.41,148.74C5994.91,2924.79,5953.24,2949.06,5913.84,2945.38Z"/><path class="cls-54" d="M5914.14,2939.59l-154.49-14.29c-35.21-3.22-56.67-30.69-47.9-61.3l38.62-134.94c9.24-32.4,47-57.4,84.17-55.1l163.06,9.88c38.94,2.36,61.72,32.07,50.45,65.6l-47.18,139.34C5990.16,2920.33,5951,2943.08,5914.14,2939.59Z"/><path class="cls-53" d="M5953.49,2775.26c8.86-27.51-9.81-51.67-41.56-53.68-31.45-2-63.48,18.5-71.63,45.64-5.43,17.92,1,34.35,15,44l-50.4,68,10.22,11,86.59,7.62,9.87-82.2C5931.12,2808.4,5947.65,2793.47,5953.49,2775.26Z"/><path class="cls-55" d="M5943.26,2764.3c8.87-27.51-9.8-51.67-41.55-53.68-31.45-2-63.48,18.5-71.63,45.63-5.43,18,1,34.36,15,44.05l-40.17,78.95,86.59,7.62,9.86-82.21C5920.9,2797.44,5937.33,2782.5,5943.26,2764.3Z"/><polygon class="cls-14" points="5780 3095 6005.9 3120 6002.5 3070.7 5976 3022.8 5753.4 3062.6 5780 3095"/><polygon class="cls-14" points="5499.5 3525.8 5540.8 3532.3 5530.6 2973.5 5491.7 2965.6 5499.5 3525.8"/><polygon class="cls-14" points="6380.2 3675.5 6422 3683 6424 3072.4 6385 3066.9 6380.2 3675.5"/><polygon class="cls-50" points="5750.1 2997.8 5976 3022.8 5952.3 3037.4 5730 3013 5750.1 2997.8"/><polygon class="cls-41" points="5729.8 3061.7 5955.7 3086.7 5952.3 3037.4 5730 3013 5729.8 3061.7"/><polygon class="cls-39" points="5975.9 3070.9 5955.7 3086.7 5952.3 3037.4 5976.1 3022.2 5975.9 3070.9"/><polygon class="cls-24" points="6649.16 2937.48 6616.46 2913.93 6502.59 2905.56 6625.17 2882.21 6649.16 2937.48"/><polygon class="cls-22" points="6649.16 2937.48 6616.46 2913.93 6502.59 2905.56 6614.05 2922.85 6649.16 2937.48"/><polygon class="cls-32" points="6452.3 3579.8 6594.9 3630.1 6628.1 3573.1 6594.9 3586.9 6452.3 3579.8"/><polygon class="cls-56" points="6452.3 3579.8 6593.5 3617.2 6628.1 3573.1 6594.9 3586.9 6452.3 3579.8"/><polygon class="cls-57" points="6862.9 3076.9 6862.9 3092.1 6946.5 3111.4 6973.5 3072.8 6947.9 3081.1 6862.9 3076.9"/><polygon class="cls-56" points="5251.3 3433.1 5335.9 3448.4 5235.1 3409.1 5251.3 3433.1"/><polygon class="cls-32" points="5251.3 3433.1 5335.9 3448.4 5235.9 3440.5 5251.3 3433.1"/><polygon class="cls-56" points="5277.4 2780.43 5371.09 2785.19 5272.5 2740.03 5277.4 2780.43"/><polygon class="cls-22" points="5258.01 2779.75 5371.09 2785.19 5255.36 2786.96 5258.01 2779.75"/><polygon class="cls-14" points="5502.34 2929.55 5597.18 2651.58 5816.12 2559.45 5841.1 2560.32 5682.99 2632.76 5679.46 2690.77 5615.27 2686.53 5531.07 2932.25 5502.34 2929.55"/><polygon class="cls-14" points="6395.56 3004.89 6484.23 2694.29 6656.23 2594.02 6690.3 2595.2 6549.67 2682.66 6547.16 2740.51 6501.02 2737.9 6429.08 3007.76 6395.56 3004.89"/></g><g id="Calque_4" data-name="Calque 4"><path class="cls-58" d="M2224.6,7.4C1635.7-51.2,1428,270,1291.2,761.6,1151.4,1263.8,860.6,2042.7,703,2386.1S-265.2,3770.7,89.3,4041.7c319.5,136.5,556.5-180.2,556.5-180.2S696,4147,995.9,4176.8s427.6-237.9,427.6-237.9-22.9,278.2,269.1,307.3S2270,4000.7,2270,4000.7s-29.9,389.5,359,338.7c341.1-44.6,622.7-678.5,834.8-1257.7C3673.7,2509,3913.9,175.6,2224.6,7.4Z"/><path class="cls-59" d="M1287.6,1490.9C1662.8,2126.1,862,3343.6,454,3214.4c-206.7-65.5,243.1-477.5,376.3-848.9C985.6,1932.1,1182,1312.1,1287.6,1490.9Z"/><path class="cls-59" d="M1697.1,223.2c7.5-273.9,1038.8-186.4,1010.5,97.9S1684.7,675.8,1697.1,223.2Z"/><path class="cls-59" d="M2848.6,840.6c4.6-24.2,36.6-38.5,71.4-31.8"/><ellipse class="cls-60" cx="3305.57" cy="1313.79" rx="137.1" ry="338.1" transform="translate(-72.68 200.12) rotate(-3.43)"/><path class="cls-61" d="M3322.2,1566.8c-119.6,1-165.6-495.3-31.9-506.6,119-10.1,151.5,505.5,31.9,506.6"/><ellipse class="cls-59" cx="3292.27" cy="1135.3" rx="49.3" ry="39.3" transform="translate(134.41 2603.59) rotate(-43.96)"/></g><path class="cls-62" d="M1197.1,2390.8l-24.7,42.6s240.2,155.9,106.8,466.2-379,137.4-395.5,179.5-49,122.9-49,122.9,292.8,154.4,490.1-282.3-117.8-525-117.8-525"/><path class="cls-62" d="M1614,2521.7l12.1,49.6s-273.7,85.6-229.9,433.5,327.3,246.8,331.7,293.6,13.7,136.6,13.7,136.6-323.9,68.8-394.7-423.5,256.5-488.8,256.5-488.8"/></svg>