<svg id="Calque_1" data-name="Calque 1" xmlns="http://www.w3.org/2000/svg" viewBox="0 0 3541.11 1799.05"><defs><style>.cls-1{fill:#f0930f;}.cls-1,.cls-2,.cls-3{stroke:#000;}.cls-1,.cls-2,.cls-3,.cls-4,.cls-5{stroke-miterlimit:10;}.cls-2{fill:#f09448;}.cls-3,.cls-4,.cls-5{fill:none;}.cls-4,.cls-5{stroke:#ff3535;}.cls-4{stroke-width:32px;}.cls-5{stroke-width:15px;}</style></defs><g id="Leaf-111"><path class="cls-1" d="M1130.61,1615.32c656,379.72,1576.39,16.84,1923.82-11,305.94-24.75,474.54,83.74,474.54,83.74-316.36-254.2-418.71-470.53-558.74-642C2850.39,899.24,2624,314.62,1983.47,98.85,1036.63-220,372.65,409.07,8.83,878.86L27,911C448.3,791.58,351.72,1164.33,1130.61,1615.32Z"/><path class="cls-2" d="M1130.61,1615.32c656,379.72,1576.39,16.84,1923.82-11,305.94-24.75,474.54,83.74,474.54,83.74-316.36-254.2-418.71-470.53-558.74-642C2850.39,899.24,2624,314.62,1983.47,98.85,1036.63-220,372.65,409.07,8.83,878.86c987.22-711.34,2293.41,125.89,2369.89,183.86C2300.84,1008.85,994.1,191.25,27,911,448.3,791.58,351.72,1164.33,1130.61,1615.32Z"/><path class="cls-2" d="M30.33,921.85c223.78-63.56,297.1,16.09,443.28,174.92,125.42,136.32,297.28,323.06,651.32,528.14,506.36,293.19,1167.46,147.38,1604.87,50.89,131.47-28.94,244.89-54,325.66-60.39,297.75-24.1,466.35,81.23,467.93,82.26a11.08,11.08,0,1,0,12.94-18C3306.41,1495,3191.22,1332,3089.7,1188.11c-37.22-52.57-72.29-102.35-110.16-148.88-23.35-28.56-50.71-74-85.42-131.56-136-225.36-389.12-644.91-906.46-818.81C1261.44-155.72,592.9,108,.75,872.67-2.42,875.79,25.31,923.33,30.33,921.85Zm3425.6,719.82c-78.81-29.58-214.75-63.55-402.42-48.38-82,6.61-196.15,31.73-328.36,60.85-434.07,95.75-1090.14,240.44-1589-48.38-351.16-203.4-521.62-388.66-646.21-524C354.75,934.84,275.28,848.4,80.54,886.92c-68.77,17.68-53.6-20.37-17.31-58.15C637.79,116.4,1282.14-125.52,1980.45,109.61c509.62,171.67,750.52,571,894.46,809.51,35.17,58.24,63,104.3,87.27,134.08,37.22,45.87,72.3,95.28,109.33,147.66,92,130.73,195.31,276.91,384.47,440.85Z"/></g><g id="Calque_2" data-name="Calque 2"><line class="cls-3" x1="986.96" y1="199.13" x2="1179.7" y2="374.43"/></g><path id="trajet" class="cls-4" d="M591.17,552.87C642.73,655.63,777.43,1039.65,1240,826.78c287.9-132.5,307,461,504.27,462.52,294,2.35,340.18-401.69,578.95-377.18,289.69,29.74,0,445.27,456.17,445.27"/><line id="x1" class="cls-5" x1="2832.14" y1="1398.47" x2="2939.04" y2="1537.14"/><line id="x2" class="cls-5" x1="2942.11" y1="1427.64" x2="2817.94" y2="1525.01"/></svg>