<svg id="Calque_1" data-name="Calque 1" xmlns="http://www.w3.org/2000/svg" viewBox="0 0 1920 1080"><defs><style>.cls-1{fill:#fff;}</style></defs><g id="nuage1"><rect class="cls-1" x="-0.5" y="809" width="1920" height="271.5"/><circle class="cls-1" cx="452" cy="803" r="100"/><circle class="cls-1" cx="595" cy="743" r="100"/><circle class="cls-1" cx="1520" cy="854" r="100"/><circle class="cls-1" cx="1017" cy="854" r="100"/><circle class="cls-1" cx="1141" cy="783" r="100"/><ellipse class="cls-1" cx="1840.5" cy="792" rx="79.5" ry="100"/><circle class="cls-1" cx="1620" cy="778" r="100"/><circle class="cls-1" cx="1564" cy="735" r="100"/><circle class="cls-1" cx="347" cy="722" r="100"/><circle class="cls-1" cx="1320" cy="854" r="100"/><circle class="cls-1" cx="1741" cy="769" r="100"/><circle class="cls-1" cx="1002" cy="754" r="100"/><circle class="cls-1" cx="1184" cy="835" r="100"/><circle class="cls-1" cx="1284" cy="760" r="100"/><circle class="cls-1" cx="1430" cy="770" r="100"/><circle class="cls-1" cx="1630" cy="814" r="100"/><circle class="cls-1" cx="842" cy="770" r="100"/><circle class="cls-1" cx="695" cy="792" r="100"/><circle class="cls-1" cx="99" cy="811" r="100"/><circle class="cls-1" cx="152" cy="892" r="100"/><circle class="cls-1" cx="247" cy="792" r="100"/></g></svg>