<svg id="Calque_1" data-name="Calque 1" xmlns="http://www.w3.org/2000/svg" viewBox="0 0 1920 1080"><defs><style>.cls-1{fill:#7fceff;}</style></defs><g id="nuage2"><rect class="cls-1" x="1" y="975" width="1916.5" height="105.5"/><ellipse class="cls-1" cx="69.5" cy="969" rx="69.5" ry="100"/><circle class="cls-1" cx="191" cy="903" r="100"/><circle class="cls-1" cx="308" cy="950" r="100"/><circle class="cls-1" cx="352" cy="878" r="100"/><circle class="cls-1" cx="465" cy="907" r="100"/><circle class="cls-1" cx="611" cy="929" r="100"/><circle class="cls-1" cx="1818" cy="929" r="100"/><circle class="cls-1" cx="746" cy="903" r="100"/><circle class="cls-1" cx="859" cy="950" r="100"/><circle class="cls-1" cx="943" cy="885" r="100"/><circle class="cls-1" cx="1013" cy="935" r="100"/><circle class="cls-1" cx="1105" cy="850" r="100"/><circle class="cls-1" cx="1160" cy="929" r="100"/><circle class="cls-1" cx="1253" cy="907" r="100"/><circle class="cls-1" cx="1329" cy="907" r="100"/><circle class="cls-1" cx="1452" cy="929" r="100"/><circle class="cls-1" cx="1476" cy="869" r="100"/><circle class="cls-1" cx="1604" cy="937" r="100"/><circle class="cls-1" cx="1726" cy="885" r="100"/><circle class="cls-1" cx="1818" cy="960" r="100"/><ellipse class="cls-1" cx="1832" cy="892" rx="87" ry="100"/></g></svg>